<svg xmlns="http://www.w3.org/2000/svg" width="40" height="40" viewBox="0 0 40 40" fill="none">
  <rect width="40" height="40" rx="20" fill="#BA3D5F"/>
  <path fill-rule="evenodd" clip-rule="evenodd" d="M26.0002 15.9998C26.0002 19.3135 23.314 21.9998 20.0002 21.9998C16.6865 21.9998 14.0002 19.3135 14.0002 15.9998C14.0002 12.6861 16.6865 9.99982 20.0002 9.99982C23.314 9.99982 26.0002 12.6861 26.0002 15.9998ZM24.0002 15.9998C24.0002 18.209 22.2094 19.9998 20.0002 19.9998C17.7911 19.9998 16.0002 18.209 16.0002 15.9998C16.0002 13.7907 17.7911 11.9998 20.0002 11.9998C22.2094 11.9998 24.0002 13.7907 24.0002 15.9998Z" fill="white"/>
  <path d="M20.0002 24.9998C13.5259 24.9998 8.00952 28.8282 5.9082 34.1919C6.4201 34.7002 6.95934 35.181 7.52353 35.6319C9.08827 30.7075 13.997 26.9998 20.0002 26.9998C26.0035 26.9998 30.9122 30.7075 32.477 35.6319C33.0412 35.181 33.5804 34.7002 34.0923 34.1919C31.991 28.8282 26.4746 24.9998 20.0002 24.9998Z" fill="white"/>
</svg>