<svg xmlns="http://www.w3.org/2000/svg" width="32" height="32" viewBox="0 0 32 32" fill="none">
  <path fill-rule="evenodd" clip-rule="evenodd" d="M16 2.66669C11.5817 2.66669 7.99996 6.2484 7.99996 10.6667V13.3334C7.99996 15.3528 7.34496 17.3178 6.13329 18.9334L5.84758 19.3143L5.82843 19.3398L5.82841 19.3399C5.75004 19.4443 5.68634 19.5292 5.64349 19.5968C4.83801 20.8691 5.67422 22.5415 7.17529 22.6604C7.25514 22.6668 7.36126 22.6667 7.4918 22.6667H7.49189L7.52376 22.6667H24.4761L24.508 22.6667H24.5081C24.6386 22.6667 24.7448 22.6668 24.8246 22.6604C26.3257 22.5415 27.1619 20.8691 26.3564 19.5968C26.3136 19.5292 26.2499 19.4443 26.1716 19.3399L26.1715 19.3398L26.1523 19.3143L25.8666 18.9334C24.6549 17.3178 24 15.3528 24 13.3334V12.4227C24 12.2037 24 12.0941 23.9375 12.035C23.8751 11.9758 23.7551 11.9823 23.515 11.9952C23.4548 11.9984 23.3942 12 23.3333 12C23.2723 12 23.2118 11.9984 23.1516 11.9952C22.9115 11.9823 22.7915 11.9758 22.729 12.035C22.6666 12.0941 22.6666 12.2037 22.6666 12.4227V13.3334C22.6666 15.6413 23.4152 17.887 24.8 19.7334L25.0857 20.1143C25.1352 20.1804 25.1691 20.2256 25.1943 20.2599C25.2065 20.2766 25.2151 20.2886 25.2213 20.2975L25.2279 20.3071C25.2294 20.3092 25.2299 20.3102 25.2299 20.3101C25.4984 20.7341 25.2196 21.2916 24.7193 21.3313C24.7193 21.3313 24.719 21.3313 24.7183 21.3313C24.7177 21.3314 24.7168 21.3314 24.7157 21.3315L24.7041 21.332C24.6933 21.3323 24.6785 21.3326 24.6578 21.3329C24.6152 21.3333 24.5588 21.3334 24.4761 21.3334H7.52376C7.44113 21.3334 7.38469 21.3333 7.34214 21.3329C7.32138 21.3326 7.30661 21.3323 7.29583 21.332L7.2842 21.3315C7.28305 21.3314 7.2822 21.3314 7.28161 21.3313C7.28088 21.3313 7.28056 21.3313 7.28062 21.3313C6.78027 21.2916 6.50153 20.7341 6.77002 20.3101L6.77004 20.31L6.772 20.3071L6.77859 20.2975C6.78477 20.2886 6.79338 20.2766 6.80565 20.2599C6.8308 20.2256 6.86466 20.1804 6.91424 20.1143L7.19996 19.7334C8.58473 17.887 9.33329 15.6413 9.33329 13.3334V10.6667C9.33329 6.98479 12.3181 4.00002 16 4.00002C17.8475 4.00002 19.5194 4.75154 20.7269 5.96555C20.8661 6.10553 20.9357 6.17552 21.0104 6.1809C21.085 6.18628 21.1677 6.12413 21.3332 5.99983C21.4329 5.92495 21.5369 5.85554 21.6448 5.79202C21.8809 5.65305 21.9989 5.58357 22.0122 5.48769C22.0254 5.3918 21.9423 5.30508 21.7761 5.13165C20.32 3.61252 18.2704 2.66669 16 2.66669Z" fill="#28292D"/>
  <circle cx="23.3333" cy="8.66632" r="2" fill="#EC174F"/>
  <path d="M12.7802 24.8624C12.9701 25.5712 13.3886 26.1975 13.9707 26.6442C14.5529 27.0909 15.2661 27.333 15.9999 27.333C16.7337 27.333 17.447 27.0909 18.0291 26.6442C18.6113 26.1975 19.0298 25.5712 19.2197 24.8624" stroke="#28292D" stroke-width="1.33333" stroke-linecap="round"/>
</svg>