<svg width="24" height="24" viewBox="0 0 24 24" fill="none" xmlns="http://www.w3.org/2000/svg">
<g id="Iconsax/Outline/map">
<path id="Vector" d="M15.65 21.408C15.22 21.408 14.79 21.318 14.44 21.148L9.19004 18.518C8.89004 18.368 8.30004 18.378 8.01004 18.548L5.65004 19.898C4.63004 20.478 3.58004 20.558 2.79004 20.088C1.99004 19.628 1.54004 18.688 1.54004 17.508V7.78802C1.54004 6.87802 2.14004 5.84802 2.93004 5.39802L7.26004 2.91802C7.99004 2.49802 9.10004 2.46802 9.85004 2.84802L15.1 5.47802C15.4 5.62802 15.98 5.60802 16.28 5.44802L18.63 4.10802C19.65 3.52802 20.7 3.44802 21.49 3.91802C22.29 4.37802 22.74 5.31802 22.74 6.49802V16.228C22.74 17.138 22.14 18.168 21.35 18.618L17.02 21.098C16.64 21.298 16.14 21.408 15.65 21.408ZM8.64004 16.918C9.07004 16.918 9.50004 17.008 9.85004 17.178L15.1 19.808C15.4 19.958 15.98 19.938 16.28 19.778L20.61 17.298C20.93 17.118 21.24 16.578 21.24 16.218V6.48802C21.24 5.85802 21.06 5.38802 20.73 5.20802C20.41 5.02802 19.91 5.09802 19.37 5.40802L17.02 6.74802C16.29 7.16802 15.18 7.19802 14.43 6.81802L9.18004 4.18802C8.88004 4.03802 8.30004 4.05802 8.00004 4.21802L3.67004 6.69802C3.35004 6.87802 3.04004 7.41802 3.04004 7.78802V17.518C3.04004 18.148 3.22004 18.618 3.54004 18.798C3.86004 18.988 4.36004 18.908 4.91004 18.598L7.26004 17.258C7.65004 17.028 8.15004 16.918 8.64004 16.918Z" fill="currentColor"/>
<path id="Vector_2" d="M8.55908 17.75C8.14908 17.75 7.80908 17.41 7.80908 17V4C7.80908 3.59 8.14908 3.25 8.55908 3.25C8.96908 3.25 9.30908 3.59 9.30908 4V17C9.30908 17.41 8.96908 17.75 8.55908 17.75ZM15.7301 20.751C15.3201 20.751 14.9801 20.411 14.9801 20.001V6.621C14.9801 6.211 15.3201 5.871 15.7301 5.871C16.1401 5.871 16.4801 6.211 16.4801 6.621V20.001C16.4801 20.411 16.1401 20.751 15.7301 20.751Z" fill="currentColor"/>
</g>
</svg>
