<svg width="24" height="24" viewBox="0 0 20 20" fill="none" xmlns="http://www.w3.org/2000/svg">
<g id="plus add">
<rect width="20" height="20" rx="4" fill="#F2994A"/>
<path id="XMLID 1427" d="M14.421 10.0833C14.421 10.5 14.0876 10.8333 13.671 10.8333H10.671V13.6666C10.671 14.0833 10.3376 14.4166 9.92098 14.4166C9.50431 14.4166 9.17098 14.0833 9.17098 13.6666V10.8333H6.33765C5.92098 10.8333 5.58765 10.5 5.58765 10.0833C5.58765 9.66665 5.92098 9.33331 6.33765 9.33331H9.17098V6.33331C9.17098 5.91665 9.50431 5.58331 9.92098 5.58331C10.3376 5.58331 10.671 5.91665 10.671 6.33331V9.33331H13.671C14.0876 9.33331 14.421 9.66665 14.421 10.0833Z" fill="white"/>
</g>
</svg>
